<?xml version="1.0" encoding="utf-8"?>
<!-- Generator: Adobe Illustrator 25.2.1, SVG Export Plug-In . SVG Version: 6.00 Build 0)  -->
<svg version="1.1" id="레이어_1" xmlns="http://www.w3.org/2000/svg" xmlns:xlink="http://www.w3.org/1999/xlink" x="0px"
	 y="0px" viewBox="0 0 2100 1280" style="enable-background:new 0 0 2100 1280;" xml:space="preserve">
<style type="text/css">
	.st0{fill:#926A9D;}
	.st1{fill:#CFB0CF;}
</style>
<g>
	<g>
		<path d="M166.85,623.6c1.93,0,1.93-3,0-3C164.92,620.6,164.92,623.6,166.85,623.6L166.85,623.6z"/>
	</g>
</g>
<g>
	<path class="st0" d="M1850.24,210.79c-8.4-18.95-21.72-35.98-35.76-51.05c-14.09-15.12-30.44-28.34-47.34-40.15
		c-16.82-11.75-35.87-20.73-55.32-27.14c-18.52-6.11-39.15-9.2-58.64-7.95c-24.25,1.55-45.83,7.06-67.51,18.08
		c-20.83,10.59-37.38,27.41-50.44,46.49c-6.45,9.42-10.77,20.42-14.84,30.97c-2.58,6.68-4.38,13.64-5.54,20.7
		c-3.29,19.9-4.76,39.28-2.61,59.33c3.91,36.47,12.12,72.43,24.51,106.96c7.12,19.84,15.34,39.55,25.42,58.09
		c9.95,18.31,22.34,35.37,35.89,51.17c25.87,30.15,60.21,52.34,97.46,65.61c18.43,6.57,38.79,9.77,58.29,9.93
		c25.78,0.22,51.93-5.54,74.57-18.05c21.71-12,38.57-31.03,52.13-51.42c11.14-16.74,19.21-36.01,25.17-55.14
		c6.21-19.92,9.08-40.83,11.21-61.51c1.75-16.91,2.38-34.12,1.48-51.11c-0.71-13.52-2.32-27.26-5.36-40.45
		c-2.7-11.72-7.59-22.88-12.54-33.79c-7.71-17-19.8-32.49-32.44-46.05c-13.07-14.03-28.64-25.9-44.2-36.98
		c-12.33-8.78-25.29-16.63-38.44-24.1c-18.75-10.65-38.58-21.14-59.58-26.4c-11.61-2.91-24.09-4.85-36.11-4.48
		c-7.89,0.24-15.86,1.53-23.6,2.83c-3.81,0.64-7.57,1.56-11.2,2.88c-16.28,5.91-26.92,11.99-40.06,23.17
		c-4.22,3.59-7.36,7.99-10.74,12.37c-5.8,7.51-9.25,13.53-12.94,22.27c-4.06,9.61-7.14,18.79-8.89,29.07
		c-1.59,9.34-2.87,18.74-4.2,28.12c-6.03,42.52-11.25,85.15-15.13,127.92c-1.68,18.45-4.17,37.31-2.05,55.82
		c0.98,8.57,1.86,17.39,4.05,25.78c2.11,8.08,5.73,15.79,9.01,23.39c2.88,6.67,6.41,12.93,10.68,18.81
		c11.61,15.99,24.18,29.92,39.46,42.37c9.3,7.58,18.86,14.85,28.48,22.02c3.16,2.36,6.3,4.57,9.87,6.27
		c5.45,2.6,11.33,5.51,17.29,6.79c9.46,2.03,17.09,2.3,26.39,1.05c12.32-1.65,22.66-6.17,32.42-13.7
		c8.3-6.41,13.87-12.6,19.72-21.92c6.53-10.4,10.97-23.55,15.54-34.66c6.86-16.68,12.63-33.81,16.82-51.36
		c5.16-21.63,8.4-44.06,9.34-66.28c0.9-21.26-1.35-42.56-5.12-63.47c-3.55-19.69-10.47-37.9-18.39-56.22
		c-6.01-13.9-13.5-26.97-22.65-39.05c-7.11-9.39-14.23-18.76-22.57-27.09c-8.36-8.36-17.8-15.4-27.19-22.55
		c-8.73-5.07-18.16-7.61-28.26-7.65c-7.71-0.29-14.9,1.32-21.58,4.82c-6.94,2.26-12.95,6.12-18.02,11.58
		c-6.94,6.99-11.74,15.22-14.4,24.71c-17.61,43.93-27.07,90.35-31.04,137.44c-3.86,45.75-0.46,93.04,9.58,137.82
		c1.78,7.94,4.25,15.67,7.36,23.19c4.69,11.37,9.14,22.57,16.38,32.55c10.05,13.86,19.28,23.97,33.85,33.38
		c6.65,4.3,14.55,7.31,21.94,9.83c7.75,2.64,16.46,3.39,24.47,3.89c8.35,0.52,17.29-1.01,25.34-2.87c8.4-1.93,16.58-5.65,24.09-9.82
		c15.54-8.64,26.73-21.1,36.99-35.25c17.4-23.99,20.93-54.16,24.73-82.57c2.58-19.33,4.69-38.94,2.39-58.41
		c-1.08-9.14-2.05-18.5-4.31-27.46c-2.19-8.69-5.96-17.1-9.6-25.19c-1.79-3.97-3.79-7.8-6.28-11.38c-5.2-7.47-10.8-15.07-17.51-21.3
		c-14.78-13.73-34.66-19.86-54.48-14.4c-17.82,4.91-35.31,20.37-39.11,39.11c-3.86,18.99-3.81,34.64-0.34,53.62
		c0.75,4.09,1.94,8.04,3.44,11.91c3.16,8.17,6.38,16.84,11.36,24.18c12.39,18.29,27.76,31.81,48.97,39.01
		c1.88,0.64,3.71,1.05,5.66,1.36c6.16,0.99,12.62,2.35,18.91,2.1c13.79-0.53,23.56-3.84,35.91-9.41
		c10.8-4.87,20.67-13.14,28.13-22.33c8.03-9.9,15.02-19.33,20.06-30.96c9.64-22.24,17.72-44.5,21.27-68.57
		c1.44-9.75,2.89-19.56,3.66-29.4c0.66-8.37-0.66-16.9-2.41-25.06c-1.3-6.09-4.26-12.39-7.08-17.83
		c-2.71-5.22-6.89-10.74-10.78-14.45c-12.72-12.12-27.87-18.35-45.46-18.94c-4.96,0.67-9.92,1.33-14.89,2
		c-7.29,1.73-13.64,5.07-19.04,10.02c-9.71,7.5-16.53,17.11-20.07,29.09c-6.39,21.65-9.85,44.43-11.19,66.94
		c-1.35,22.71,1.15,45.27,4.95,67.66c2.21,13.04,14.77,27.05,25.74,33.47c12,7.02,29.69,10,43.15,5.65
		c13.55-4.39,26.62-12.78,33.47-25.74c1.88-4.46,3.76-8.92,5.65-13.38c2.67-9.92,2.67-19.85,0-29.77c-0.52-3.06-0.99-6.12-1.4-9.19
		c0.67,4.96,1.33,9.92,2,14.89c-2.59-20.34-2.52-40.83,0.18-61.16c-0.67,4.96-1.33,9.92-2,14.89c1.65-11.68,4.13-23.17,7.47-34.48
		c-18,13.7-36,27.41-54,41.11c0.36,0.01,0.73,0.02,1.09,0.04c-4.96-0.67-9.92-1.33-14.89-2c0.68,0.07,1.34,0.23,1.97,0.49
		c-4.46-1.88-8.92-3.76-13.38-5.65c0.61,0.25,1.18,0.58,1.7,0.98c-3.78-2.92-7.56-5.84-11.33-8.76c0.53,0.41,1.01,0.88,1.44,1.41
		c-2.92-3.78-5.84-7.56-8.76-11.33c0.89,1.2,1.55,2.41,2.13,3.79c-1.88-4.46-3.76-8.92-5.65-13.38c0.67,1.91,1.1,3.81,1.39,5.81
		c-0.67-4.96-1.33-9.92-2-14.89c0.63,6.2-0.36,12.52-1.14,18.67c0.67-4.96,1.33-9.92,2-14.89c-2.7,19.96-7.98,39.39-15.76,57.97
		c1.88-4.46,3.76-8.92,5.65-13.38c-3.03,7.07-6.55,13.73-11.2,19.88c2.92-3.78,5.84-7.56,8.76-11.33c-2.72,3.44-5.68,6.57-9.09,9.34
		c3.78-2.92,7.56-5.84,11.33-8.76c-2.57,1.95-5.2,3.55-8.17,4.82c4.46-1.88,8.92-3.76,13.38-5.65c-2.09,0.78-4.14,1.32-6.34,1.65
		c4.96-0.67,9.92-1.33,14.89-2c-1.8,0.16-3.53,0.17-5.33,0.02c4.96,0.67,9.92,1.33,14.89,2c-2.48-0.36-4.75-0.99-7.06-1.94
		c4.46,1.88,8.92,3.76,13.38,5.65c-1.85-0.9-3.53-1.91-5.21-3.1c3.78,2.92,7.56,5.84,11.33,8.76c-2.88-2.27-5.3-4.8-7.55-7.7
		c2.92,3.78,5.84,7.56,8.76,11.33c-2.55-3.51-4.64-7.22-6.42-11.18c1.88,4.46,3.76,8.92,5.65,13.38
		c-2.15-5.14-3.62-10.39-4.48-15.89c0.67,4.96,1.33,9.92,2,14.89c-0.71-5.52-0.75-10.97-0.11-16.5c-0.67,4.96-1.33,9.92-2,14.89
		c0.24-1.65,0.52-3.26,0.85-4.89c-31.2,8.24-62.4,16.47-93.6,24.71c2.42,2.25,4.64,4.62,6.71,7.2c-2.92-3.78-5.84-7.56-8.76-11.33
		c3.37,4.39,6.1,9.09,8.33,14.15c-1.88-4.46-3.76-8.92-5.65-13.38c3.08,7.37,4.96,15.07,6.08,22.96c-0.67-4.96-1.33-9.92-2-14.89
		c2.6,20.23,0.38,40.62-2.32,60.72c0.67-4.96,1.33-9.92,2-14.89c-1.83,13.47-4.03,26.91-9.2,39.56c1.88-4.46,3.76-8.92,5.65-13.38
		c-2.33,5.38-5.12,10.38-8.66,15.05c2.92-3.78,5.84-7.56,8.76-11.33c-3.11,3.89-6.56,7.35-10.5,10.39
		c3.78-2.92,7.56-5.84,11.33-8.76c-3.16,2.31-6.46,4.23-10.05,5.79c4.46-1.88,8.92-3.76,13.38-5.65c-3.17,1.24-6.33,2.11-9.7,2.61
		c4.96-0.67,9.92-1.33,14.89-2c-3.17,0.34-6.24,0.34-9.4-0.02c4.96,0.67,9.92,1.33,14.89,2c-3.23-0.47-6.29-1.29-9.32-2.5
		c4.46,1.88,8.92,3.76,13.38,5.65c-3.33-1.44-6.38-3.26-9.28-5.43c3.78,2.92,7.56,5.84,11.33,8.76c-3.95-3.12-7.35-6.71-10.43-10.69
		c2.92,3.78,5.84,7.56,8.76,11.33c-4.54-6.09-8.13-12.73-11.13-19.69c1.88,4.46,3.76,8.92,5.65,13.38
		c-7.18-17.24-10.22-35.81-12.73-54.22c0.67,4.96,1.33,9.92,2,14.89c-4.96-37.66-4.87-75.79,0.15-113.44
		c-0.67,4.96-1.33,9.92-2,14.89c4.77-34.64,13.67-68.56,26.68-101.01c-27.42,11.16-54.84,22.31-82.26,33.47
		c0.41,0.32,0.83,0.63,1.24,0.95c-3.78-2.92-7.56-5.84-11.33-8.76c10.68,8.31,20.14,17.92,28.43,28.61
		c-2.92-3.78-5.84-7.56-8.76-11.33c9.16,12.05,16.67,25.16,22.65,39.05c-1.88-4.46-3.76-8.92-5.65-13.38
		c6.92,16.46,11.6,33.69,14.1,51.37c-0.67-4.96-1.33-9.92-2-14.89c2.82,21.14,2.45,42.51-0.35,63.63c0.67-4.96,1.33-9.92,2-14.89
		c-3.89,27.88-11.93,54.92-22.75,80.87c1.88-4.46,3.76-8.92,5.65-13.38c-3.13,7.4-6.07,15.31-10.77,21.9
		c2.92-3.78,5.84-7.56,8.76-11.33c-1.14,1.44-2.32,2.71-3.72,3.9c3.78-2.92,7.56-5.84,11.33-8.76c-1.11,0.8-2.13,1.4-3.37,1.97
		c4.46-1.88,8.92-3.76,13.38-5.65c-0.83,0.33-1.68,0.57-2.56,0.71c4.96-0.67,9.92-1.33,14.89-2c-1.08,0.17-2.17,0.2-3.26,0.08
		c4.96,0.67,9.92,1.33,14.89,2c-1.69-0.28-3.11-0.67-4.71-1.28c4.46,1.88,8.92,3.76,13.38,5.65c-6.74-3.15-12.6-8.28-18.47-12.79
		c3.78,2.92,7.56,5.84,11.33,8.76c-13.42-10.37-26.43-21.41-36.98-34.78c2.92,3.78,5.84,7.56,8.76,11.33
		c-5.19-6.76-9.61-13.97-12.94-21.82c1.88,4.46,3.76,8.92,5.65,13.38c-2.49-6.18-4.17-12.49-5.18-19.07c0.67,4.96,1.33,9.92,2,14.89
		c-1.63-12.33-0.96-24.71,0.03-37.07c1.05-13.11,2.25-26.21,3.55-39.3c2.6-26.26,5.68-52.47,9.19-78.63
		c-0.67,4.96-1.33,9.92-2,14.89c1.63-12.1,3.35-24.18,5.18-36.25c1.54-10.2,3.24-20.38,7.26-29.94c-1.88,4.46-3.76,8.92-5.65,13.38
		c1.6-3.53,3.46-6.78,5.74-9.92c-2.92,3.78-5.84,7.56-8.76,11.33c2.37-3.02,5.01-5.65,8.01-8.04c-3.78,2.92-7.56,5.84-11.33,8.76
		c3.44-2.57,7.1-4.66,11.04-6.38c-4.46,1.88-8.92,3.76-13.38,5.65c4.95-2.02,10.03-3.35,15.32-4.14c-4.96,0.67-9.92,1.33-14.89,2
		c6.3-0.8,12.57-0.79,18.87,0c-4.96-0.67-9.92-1.33-14.89-2c9.48,1.4,18.51,4.24,27.32,7.95c-4.46-1.88-8.92-3.76-13.38-5.65
		c14,6.08,27.3,13.78,40.39,21.59c11.93,7.12,23.56,14.71,34.6,23.14c-3.78-2.92-7.56-5.84-11.33-8.76
		c12.36,9.56,23.84,20.16,33.52,32.46c-2.92-3.78-5.84-7.56-8.76-11.33c6.34,8.23,11.71,17.04,15.88,26.57
		c-1.88-4.46-3.76-8.92-5.65-13.38c3.96,9.4,6.5,19.15,7.97,29.24c-0.67-4.96-1.33-9.92-2-14.89c3.29,24.64,2.05,50.39-1.2,74.98
		c0.67-4.96,1.33-9.92,2-14.89c-2.59,18.71-7.04,37.08-14.38,54.52c1.88-4.46,3.76-8.92,5.65-13.38
		c-5.04,11.65-11.3,22.67-19.05,32.74c2.92-3.78,5.84-7.56,8.76-11.33c-5.12,6.47-10.78,12.35-17.3,17.43
		c3.78-2.92,7.56-5.84,11.33-8.76c-5.05,3.77-10.38,6.85-16.17,9.34c4.46-1.88,8.92-3.76,13.38-5.65
		c-7.22,2.91-14.67,4.78-22.37,5.9c4.96-0.67,9.92-1.33,14.89-2c-10.74,1.37-21.51,1.29-32.24-0.08c4.96,0.67,9.92,1.33,14.89,2
		c-12.38-1.73-24.35-5.13-35.89-9.93c4.46,1.88,8.92,3.76,13.38,5.65c-13.08-5.6-25.29-12.86-36.62-21.46
		c3.78,2.92,7.56,5.84,11.33,8.76c-13.1-10.12-24.7-21.84-34.84-34.92c2.92,3.78,5.84,7.56,8.76,11.33
		c-13.54-17.75-24.28-37.31-33.01-57.82c1.88,4.46,3.76,8.92,5.65,13.38c-13.86-33.06-24.08-68.75-28.93-104.3
		c0.67,4.96,1.33,9.92,2,14.89c-2.06-15.84-2.73-31.83-0.6-47.71c-0.67,4.96-1.33,9.92-2,14.89c1.29-8.83,3.46-17.43,6.81-25.71
		c-1.88,4.46-3.76,8.92-5.65,13.38c2.9-6.85,6.53-13.23,11.01-19.18c-2.92,3.78-5.84,7.56-8.76,11.33
		c4.3-5.49,9.16-10.32,14.66-14.6c-3.78,2.92-7.56,5.84-11.33,8.76c5.92-4.43,12.27-8.04,19.07-10.96
		c-4.46,1.88-8.92,3.76-13.38,5.65c8.3-3.41,16.9-5.67,25.78-6.92c-4.96,0.67-9.92,1.33-14.89,2c9.44-1.19,18.9-1.21,28.34-0.06
		c-4.96-0.67-9.92-1.33-14.89-2c11.35,1.54,22.33,4.69,32.92,9.03c-4.46-1.88-8.92-3.76-13.38-5.65
		c14.36,6.08,27.61,14.21,39.96,23.69c-3.78-2.92-7.56-5.84-11.33-8.76c14.17,11.04,27.31,23.56,38.4,37.72
		c-2.92-3.78-5.84-7.56-8.76-11.33c6.54,8.53,12.17,17.61,16.53,27.45c5.32,12,21.38,22.41,33.47,25.74
		c13.4,3.69,31.25,2.02,43.15-5.65c11.96-7.71,22.48-19.19,25.74-33.47c0.67-4.96,1.33-9.92,2-14.89
		C1857.86,228.94,1855.31,219.52,1850.24,210.79L1850.24,210.79z"/>
</g>
<g>
	<g>
		<path class="st0" d="M345.68,915.63c-13.82-14.85-29.22-27.53-45.34-39.81c-6.11-4.66-12.37-9.11-18.84-13.27
			c-6.6-4.24-14.1-8.02-21.61-10.1c-5.54-1.53-12.28-2.22-18.07-2.35c-9.81-0.22-22.45,3.16-30.94,8.44
			c-27.13,16.85-39.12,48.82-40.08,79.58c-0.36,11.68,1.6,23.71,4.17,35.06c1.69,7.49,4.18,14.78,7.06,21.88
			c25.86,63.64,66.57,136.67,141.43,147.48c9.18,1.33,18.29,2.51,27.17,5.32c10.65,3.36,20.47,6.43,31.61,7.93
			c15.01,2.02,29.94,1.33,44.57-3.28c12.4-3.91,24.14-9.8,36.07-14.91c-4.46,1.88-8.92,3.76-13.38,5.65
			c11.29-4.73,22.8-7.36,34.9-9.01c-4.96,0.67-9.92,1.33-14.89,2c17.15-2.26,34.78-3.25,51.5-7.89
			c19.2-5.32,35.37-14.33,50.57-26.92c6.87-5.69,12.47-13.15,17.43-20.44c1.68-2.47,3.04-5.01,4.26-7.74
			c3.17-7.03,6.66-14.26,8.17-21.89c4.17-21.09,3.47-38.8-0.04-59.8c-2.29-13.72-7.83-27.37-14.31-39.53
			c-8.71-16.36-21.42-29.01-36.38-39.55c-14.93-10.53-34.74-15.6-52.85-15.76c-19.68-0.17-38.63,6.17-55.77,15.4
			c-23.07,12.42-40.87,32.25-65.1,42.88c4.46-1.88,8.92-3.76,13.38-5.65c-9.36,3.95-19.05,6.74-29.12,8.1
			c4.96-0.67,9.92-1.33,14.89-2c-7.78,0.91-15.5,0.92-23.27-0.11c4.96,0.67,9.92,1.33,14.89,2c-6.04-0.93-11.84-2.45-17.51-4.73
			c4.46,1.88,8.92,3.76,13.38,5.65c-6.23-2.65-11.99-6.03-17.35-10.17c3.78,2.92,7.56,5.84,11.33,8.76
			c-4.49-3.61-8.52-7.62-12.1-12.13c2.92,3.78,5.84,7.56,8.76,11.33c-3.44-4.52-6.3-9.34-8.53-14.57c1.88,4.46,3.76,8.92,5.65,13.38
			c-1.75-4.38-2.98-8.85-3.69-13.52c0.67,4.96,1.33,9.92,2,14.89c-0.23-1.89-0.39-3.76-0.47-5.66c-31.87,13.2-63.73,26.4-95.6,39.6
			c23.63,28.84,51.34,55.07,88.63,64.47c19.49,4.91,39.91,5.68,59.92,5.83c15.66,0.12,31.35,0.16,46.97-1.19
			c22.09-1.91,44.64-4.95,65.29-13.41c-14.38-34.12-28.77-68.24-43.15-102.35c-10.07,6.14-20.45,11.7-31.31,16.3
			c4.46-1.88,8.92-3.76,13.38-5.65c-11.37,4.68-23.09,8.2-35.28,9.92c4.96-0.67,9.92-1.33,14.89-2c-8.64,1.09-17.29,1.29-25.94,0.21
			c4.96,0.67,9.92,1.33,14.89,2c-7.63-1.09-15-3.08-22.13-6c4.46,1.88,8.92,3.76,13.38,5.65c-6.58-2.83-12.71-6.35-18.4-10.72
			c3.78,2.92,7.56,5.84,11.33,8.76c-4.4-3.51-8.35-7.42-11.85-11.83c2.92,3.78,5.84,7.56,8.76,11.33c-3.11-4.11-5.7-8.47-7.77-13.19
			c1.88,4.46,3.76,8.92,5.65,13.38c-0.54-1.31-1.04-2.63-1.51-3.96c-22.96,22.96-45.92,45.92-68.89,68.89
			c23.74,4.29,47,6.19,70.96,3.61c18.06-1.95,36.11-4.9,54.28-2.53c-4.96-0.67-9.92-1.33-14.89-2c6.29,0.93,12.38,2.44,18.3,4.78
			c-4.46-1.88-8.92-3.76-13.38-5.65c4.84,2.05,9.31,4.59,13.49,7.79c-3.78-2.92-7.56-5.84-11.33-8.76c2.63,2.16,4.95,4.47,7.1,7.11
			c-2.92-3.78-5.84-7.56-8.76-11.33c2.32,3.05,4.23,6.27,5.81,9.76c-1.88-4.46-3.76-8.92-5.65-13.38c1.45,3.51,2.46,7.05,3.04,10.81
			c-0.67-4.96-1.33-9.92-2-14.89c0.37,3.25,0.39,6.38-0.01,9.62c0.67-4.96,1.33-9.92,2-14.89c-0.46,2.75-1.19,5.33-2.26,7.9
			c1.88-4.46,3.76-8.92,5.65-13.38c-0.38,0.85-0.8,1.68-1.25,2.5c-7,13.14-9.66,28.57-5.65,43.15
			c3.58,12.99,13.62,27.07,25.74,33.47c13,6.87,28.74,10.31,43.15,5.65c13.58-4.39,26.57-12.79,33.47-25.74
			c15.54-29.18,14.89-63.89-2.1-92.42c-14.43-24.25-39.08-41.28-66.23-48.29c-21.53-5.55-43.25-5.39-65.08-2.86
			c-20.11,2.33-39.69,4-59.89,1.48c4.96,0.67,9.92,1.33,14.89,2c-3.22-0.44-6.41-0.94-9.61-1.52c-9.92-2.67-19.85-2.67-29.77,0
			c-9.49,2.66-17.72,7.46-24.71,14.4c-13.37,13.37-20.91,36-14.4,54.48c3.78,10.73,8.12,21.37,14.92,30.53
			c4.68,6.31,9.54,13.06,15.3,18.57c5.46,5.23,11.72,9.76,17.76,14.21c9.36,6.89,19.92,11.15,30.66,15.5
			c6.93,2.81,14.03,4.79,21.42,5.9c12.54,1.89,24.59,3.57,37.21,2.38c13.02-1.23,26.21-3,38.78-6.76
			c21.12-6.32,41.59-16.12,60.4-27.59c11.62-7.09,22.64-19.87,25.74-33.47c2.85-12.52,2.19-24.57-2.82-36.46
			c-4.54-10.76-12.3-21.17-22.91-26.78c-12.4-6.55-29.54-11.22-43.15-5.65c-12.75,5.22-26.06,8.38-39.69,10.24
			c4.96-0.67,9.92-1.33,14.89-2c-15.24,1.96-30.6,2.4-45.95,2.41c-15.16,0-30.45,0.24-45.51-1.73c4.96,0.67,9.92,1.33,14.89,2
			c-7.61-1.11-14.99-2.87-22.15-5.71c4.46,1.88,8.92,3.76,13.38,5.65c-6.95-2.95-13.31-6.78-19.33-11.33
			c3.78,2.92,7.56,5.84,11.33,8.76c-12.89-10.06-23.39-22.6-33.7-35.18c-3.78-2.92-7.56-5.84-11.33-8.76
			c-4.46-1.88-8.92-3.76-13.38-5.65c-12.2-3.36-24.95-2.03-36.46,2.82c-9.21,3.89-16.29,9.34-22.4,17.25
			c-7.32,9.47-12.54,21.64-12.02,33.93c0.61,14.7,3.36,27.44,8.98,40.75c5.66,13.4,12.33,23.48,21.9,34.8
			c14.79,17.49,36.77,29.98,58.44,36.69c3.74,1.16,7.56,1.93,11.43,2.53c8.71,1.36,17.65,2.81,26.52,2.83
			c12.95,0.04,26.32-1.88,38.88-5.08c12.52-3.19,24.8-8.51,36.31-14.24c7.4-3.68,14.31-8.14,20.96-13.04
			c14.45-10.64,28.04-22.93,44.63-30.21c-4.46,1.88-8.92,3.76-13.38,5.65c4.9-2.03,9.88-3.5,15.14-4.21
			c-4.96,0.67-9.92,1.33-14.89,2c3.89-0.4,7.69-0.37,11.56,0.13c-4.96-0.67-9.92-1.33-14.89-2c3.48,0.56,6.79,1.46,10.07,2.77
			c-4.46-1.88-8.92-3.76-13.38-5.65c3.46,1.51,6.65,3.39,9.67,5.65c-3.78-2.92-7.56-5.84-11.33-8.76c3.66,2.91,6.84,6.21,9.7,9.91
			c-2.92-3.78-5.84-7.56-8.76-11.33c3.41,4.61,6.17,9.57,8.46,14.82c-1.88-4.46-3.76-8.92-5.65-13.38c3.13,7.55,5.18,15.4,6.3,23.48
			c-0.67-4.96-1.33-9.92-2-14.89c0.95,7.7,1.05,15.45,0.12,23.16c0.67-4.96,1.33-9.92,2-14.89c-0.62,4.16-1.59,8.1-3.1,12.04
			c1.88-4.46,3.76-8.92,5.65-13.38c-1.39,3.18-3.04,6.07-5.09,8.87c2.92-3.78,5.84-7.56,8.76-11.33c-2.63,3.34-5.61,6.23-8.96,8.84
			c3.78-2.92,7.56-5.84,11.33-8.76c-4.28,3.15-8.85,5.69-13.71,7.82c4.46-1.88,8.92-3.76,13.38-5.65
			c-9.94,4.13-20.33,6.16-30.96,7.61c4.96-0.67,9.92-1.33,14.89-2c-16.32,2.15-32.93,3.33-48.96,7.19
			c-15.12,3.64-29.12,10.93-43.37,17c4.46-1.88,8.92-3.76,13.38-5.65c-6.7,2.79-13.46,5.18-20.67,6.22c4.96-0.67,9.92-1.33,14.89-2
			c-3.98,0.43-7.8,0.4-11.78-0.1c4.96,0.67,9.92,1.33,14.89,2c-12.81-2.04-24.59-7.9-37.37-10.18c-12.77-2.28-25.63-3.08-37.78-8.01
			c4.46,1.88,8.92,3.76,13.38,5.65c-6.53-2.8-12.55-6.39-18.21-10.68c3.78,2.92,7.56,5.84,11.33,8.76
			c-7.97-6.24-14.87-13.57-21.1-21.53c2.92,3.78,5.84,7.56,8.76,11.33c-15.5-20.19-27.83-43.69-37.88-67.02
			c1.88,4.46,3.76,8.92,5.65,13.38c-4.61-10.94-8.38-22.2-9.98-34.01c0.67,4.96,1.33,9.92,2,14.89c-0.68-5.87-0.78-11.66-0.06-17.53
			c-0.67,4.96-1.33,9.92-2,14.89c0.71-4.73,1.93-9.25,3.76-13.68c-1.88,4.46-3.76,8.92-5.65,13.38c1.28-2.84,2.71-5.57,4.52-8.1
			c-2.92,3.78-5.84,7.56-8.76,11.33c0.56-0.74,1.18-1.41,1.88-2.02c-3.78,2.92-7.56,5.84-11.33,8.76c0.68-0.6,1.43-1.07,2.25-1.44
			c-4.46,1.88-8.92,3.76-13.38,5.65c0.43-0.14,0.86-0.27,1.28-0.41c-4.96,0.67-9.92,1.33-14.89,2c1.07-0.21,2.14-0.2,3.21,0.04
			c-4.96-0.67-9.92-1.33-14.89-2c0.52,0.15,1.05,0.31,1.57,0.46c-4.46-1.88-8.92-3.76-13.38-5.65c9.42,4.09,18.17,11.29,26.29,17.5
			c-3.78-2.92-7.56-5.84-11.33-8.76c12.17,9.43,23.52,19.79,34,31.06c9.57,10.28,25.77,16.4,39.6,16.4c13.73,0,30.14-6.1,39.6-16.4
			c9.8-10.67,17.07-24.68,16.4-39.6C361.4,940.07,356.12,926.86,345.68,915.63L345.68,915.63z"/>
	</g>
</g>
<g>
	<g>
		<path class="st0" d="M1372.11,273.16c12.3-6.45,23.55-20.6,26.63-34.23c2.44-10.82,2.59-21.45-0.48-32.23
			c-4.13-14.5-13.38-25.81-24.22-35.78c-14.6-13.43-30.4-25.7-46.72-36.97c-13.55-9.36-32.29-8.74-46.72-2.65
			c-15.51,6.55-25.04,18.16-30.4,34.02c-8.24,24.38-7.81,49.79-3.53,74.8c2.11,12.34,6.88,23.56,11.84,35.02
			c3.41,7.87,7.61,15.2,12.75,22.06c7.64,10.19,15.15,19.77,25.16,27.65c13.48,10.62,27.49,20.53,44.87,23.71
			c12.94,2.37,24.67,3.19,37.57-0.19c11.59-3.05,23.4-9.59,31.91-18.11c14.15-14.15,22.19-34.2,21.88-54.23
			c-0.36-22.49-9.51-41.58-24.04-58.28c-5.79-6.65-13.37-11.8-20.36-17c-4.4-3.27-9.1-6.12-13.79-8.95
			c-11.57-6.98-27.5-8.86-40.45-5.29c-12.18,3.35-25.38,12.77-31.38,24.13c-6.44,12.18-9.66,26.94-5.29,40.45
			c4.25,13.13,12.12,24.14,24.13,31.38c5.37,3.24,10.68,6.54,15.65,10.37c-3.54-2.74-7.08-5.47-10.63-8.21
			c3.63,2.92,6.93,6.09,9.81,9.75c-2.74-3.54-5.47-7.08-8.21-10.63c1.69,2.32,3.14,4.69,4.31,7.32c-1.76-4.18-3.53-8.36-5.29-12.54
			c0.97,2.47,1.66,4.94,2.09,7.56c-0.63-4.65-1.25-9.3-1.88-13.96c0.32,2.61,0.38,5.15,0.12,7.77c0.63-4.65,1.25-9.3,1.88-13.96
			c-0.31,2.11-0.79,4.1-1.52,6.11c1.76-4.18,3.53-8.36,5.29-12.54c-0.83,1.94-1.82,3.65-3.09,5.32c2.74-3.54,5.47-7.08,8.21-10.63
			c-0.84,0.96-1.68,1.8-2.65,2.64c3.54-2.74,7.08-5.47,10.63-8.21c-1.58,1.19-3.18,2.11-4.99,2.91c4.18-1.76,8.36-3.53,12.54-5.29
			c-1.43,0.5-2.76,0.86-4.25,1.16c4.65-0.63,9.3-1.25,13.96-1.88c-2.53,0.32-4.93,0.31-7.45,0.03c4.65,0.63,9.3,1.25,13.96,1.88
			c-3.14-0.5-6.09-1.34-9.06-2.48c4.18,1.76,8.36,3.53,12.54,5.29c-4.84-2.04-9.21-4.7-13.4-7.86c3.54,2.74,7.08,5.47,10.63,8.21
			c-6.37-4.96-12-10.66-16.95-17.03c2.74,3.54,5.47,7.08,8.21,10.63c-5.15-6.83-9.38-14.19-12.75-22.06
			c1.76,4.18,3.53,8.36,5.29,12.54c-3.44-8.36-5.81-17.03-7.09-25.99c0.63,4.65,1.25,9.3,1.88,13.96
			c-1.09-8.48-1.16-16.96-0.13-25.45c-0.63,4.65-1.25,9.3-1.88,13.96c0.84-6.12,2.22-12.08,4.2-17.93
			c-25.71,10.46-51.42,20.92-77.12,31.38c5.07,3.5,10.04,7.13,14.93,10.88c-3.54-2.74-7.08-5.47-10.63-8.21
			c10.03,7.81,21.44,16.13,29.47,26.07c-2.74-3.54-5.47-7.08-8.21-10.63c0.75,1.07,1.36,2.11,1.95,3.28
			c-1.76-4.18-3.53-8.36-5.29-12.54c0.47,1.16,0.79,2.18,1.01,3.41c-0.62-4.65-1.25-9.3-1.88-13.96c0.09,0.69,0.07,1.38-0.07,2.06
			c0.62-4.65,1.25-9.3,1.88-13.96c-0.1,0.3-0.2,0.6-0.3,0.9c1.76-4.18,3.53-8.36,5.29-12.54c-0.17,0.26-0.34,0.53-0.51,0.79
			c2.74-3.54,5.47-7.08,8.21-10.63c-0.24,0.22-0.48,0.44-0.73,0.66c3.54-2.74,7.08-5.47,10.63-8.21c-0.32,0.17-0.64,0.34-0.96,0.5
			c-11.35,5.96-20.78,19.23-24.13,31.38c-3.46,12.57-1.9,29.3,5.29,40.45c7.23,11.21,17.99,21.08,31.38,24.13
			C1345.79,281.67,1359.16,279.95,1372.11,273.16L1372.11,273.16z"/>
	</g>
</g>
<g>
	<path class="st1" d="M1586,438c-8.75,3.15-21.03,13.73-30.24,15.24c-12.54,2.07-24.28,9.4-33.32,18.09
		c-3.95,3.8-8,9.33-10.82,14.13c-3.13,5.34-5.16,11.5-7.48,17.2c-1.89,4.65-3.53,9.38-4.79,14.24c-4.52,17.43-6.82,35.81-2.71,53.54
		c2.73,11.75,9.49,23.33,17.88,31.92c9.65,9.89,19.43,14.46,32.08,19.24c3.37,1.27,6.8,2.08,10.35,2.65
		c9.59,1.52,19.28,2.9,28.98,3.54c13.63,0.91,26.96-0.23,40.48-2.04c7.81-1.05,15.57-2.08,23.26-3.84c5.91-1.36,6.33,0.9,16.24,4.64
		c9.79,3.69,20.74,5.07,31.1,5.39c20.21,0.62,40.11-5.57,57.87-14.76c28.39-14.7,49.86-42.79,62.58-71.55
		c4.04-9.13,8.91-18.58,11.21-28.42c5.46-23.43-0.51-47.78-17.68-64.92c-14.67-14.64-34.59-20.26-54.11-24.91
		c-13.58-3.23-27.3-5.85-41.11-7.84c-11.23-1.62-22.49-3.17-33.77-4.32c-7.14-0.73-14.53-1.75-21.71-1.3
		C1644.82,414.89,1647,416,1586,438z"/>
</g>
<g>
	<g>
		<path class="st1" d="M1706.78,871.17c-24.22,7.79-48.16,18.42-69.4,32.54c-12.13,8.07-23.78,17.06-34.74,26.65
			c-8.05,7.04-15.06,15.25-23.38,21.97c3.78-2.92,7.56-5.84,11.33-8.76c-3.01,2.29-6.08,4.2-9.55,5.71
			c4.46-1.88,8.92-3.76,13.38-5.65c-3.37,1.26-6.75,2.04-10.3,2.57c4.96-0.67,9.92-1.33,14.89-2c-17.54,2.16-35.53,2.27-52.58,7.43
			c-18.99,5.74-38.99,15.8-52.39,30.82c-16.76,18.78-26.37,40.89-27.44,66.14c-0.4,9.36,0.92,19.3,4.08,28.1
			c2.36,6.56,4.91,13.49,8.85,19.37c3.83,5.73,8.26,11.92,13.43,16.61c15.08,13.68,33.53,22.73,53.53,26.54
			c18.19,3.47,36.73,5.53,55.14,7.51c30.55,3.28,61.31,4.71,92.03,4.27c15.04-0.21,30.07-0.88,45.06-1.98
			c19.25-1.42,39-2.92,57.89-6.87c34.51-7.21,65.06-31.66,80.68-63.17c6.66-13.43,12.19-27.62,15.66-42.23
			c3.65-15.33,5.58-31.15,7.37-46.77c2.34-20.37-0.55-41.66-11.26-59.49c-13.36-22.23-36.11-34.24-60.63-39.91
			c-18.39-4.25-37.29-7.77-56.16-8.67c-22.97-1.09-44.66,3.89-65.33,13.52c-17.06,7.95-30.41,21.81-42.79,35.6
			c-9.99,11.13-20.91,21.3-32.74,30.45c3.78-2.92,7.56-5.84,11.33-8.76c-16.28,12.41-33.97,22.71-52.81,30.7
			c4.46-1.88,8.92-3.76,13.38-5.65c-4.08,1.7-8.19,3.29-12.35,4.78c-9.01,3.24-17.84,7.53-24.71,14.4
			c-8.76,8.76-13.77,20.02-15.4,32.15c-1.33,4.96-1.33,9.92,0,14.89c0.02,5.05,1.29,9.76,3.82,14.13
			c4.34,10.28,12.38,21.96,22.91,26.78c16.02,7.32,32.22,13.87,49.54,17.33c16.68,3.33,34.02,5.57,51.08,5.49
			c32.87-0.14,66.87-7.62,95.36-24.46c12.78-7.55,25.2-17.12,34.93-28.4c6.35-7.36,12.61-15.21,17.67-23.57
			c5.08-8.39,8.79-17.77,12.28-26.86c1.78-4.65,3.13-9.47,3.97-14.38c1.69-9.88,3.5-20.36,2.9-30.51
			c-1.18-19.78-5.84-37.06-15.24-54.55c-9.52-17.73-23.98-31.77-40.46-42.96c-8.12-5.51-17.78-9.36-26.97-12.38
			c-9.95-3.27-20.68-3.64-31.02-4.77c4.96,0.67,9.92,1.33,14.89,2c-2.17-0.29-4.21-0.71-6.26-1.46c4.46,1.88,8.92,3.76,13.38,5.65
			c-0.75-0.31-1.46-0.69-2.13-1.15c3.78,2.92,7.56,5.84,11.33,8.76c-0.67-0.46-1.26-0.99-1.78-1.61c2.92,3.78,5.84,7.56,8.76,11.33
			c-0.57-0.68-1.02-1.42-1.36-2.24c1.88,4.46,3.76,8.92,5.65,13.38c-0.34-0.82-0.54-1.67-0.6-2.55c0.67,4.96,1.33,9.92,2,14.89
			c0-0.43,0-0.87,0-1.3c-0.67,4.96-1.33,9.92-2,14.89c0.2-1.43,0.51-2.57,1.03-3.91c-1.88,4.46-3.76,8.92-5.65,13.38
			c0.67-1.34,1.37-2.5,2.25-3.71c-2.92,3.78-5.84,7.56-8.76,11.33c1.28-1.55,2.64-2.91,4.19-4.2c-3.78,2.92-7.56,5.84-11.33,8.76
			c2.79-2.04,5.73-3.69,8.87-5.12c-4.46,1.88-8.92,3.76-13.38,5.65c4.51-1.89,9.12-3.12,13.95-3.81c-4.96,0.67-9.92,1.33-14.89,2
			c5.41-0.62,10.75-0.53,16.15,0.15c-4.96-0.67-9.92-1.33-14.89-2c6.5,0.97,12.74,2.75,18.81,5.27c-4.46-1.88-8.92-3.76-13.38-5.65
			c6.03,2.64,11.65,5.92,16.91,9.89c-3.78-2.92-7.56-5.84-11.33-8.76c5.79,4.56,10.93,9.75,15.48,15.55
			c-2.92-3.78-5.84-7.56-8.76-11.33c4.97,6.53,9.04,13.58,12.31,21.1c-1.88-4.46-3.76-8.92-5.65-13.38
			c3.72,8.9,6.21,18.17,7.55,27.73c-0.67-4.96-1.33-9.92-2-14.89c1.23,9.64,1.26,19.3,0.09,28.94c0.67-4.96,1.33-9.92,2-14.89
			c-1.29,9.62-3.76,18.95-7.51,27.91c1.88-4.46,3.76-8.92,5.65-13.38c-3.63,8.36-8.31,16.13-13.85,23.36
			c2.92-3.78,5.84-7.56,8.76-11.33c-6.32,8.03-13.57,15.15-21.64,21.41c3.78-2.92,7.56-5.84,11.33-8.76
			c-8.98,6.81-18.7,12.4-29.05,16.84c4.46-1.88,8.92-3.76,13.38-5.65c-11.36,4.73-23.2,7.96-35.38,9.65c4.96-0.67,9.92-1.33,14.89-2
			c-10.8,1.38-21.66,1.55-32.48,0.25c4.96,0.67,9.92,1.33,14.89,2c-8.47-1.14-16.7-3.18-24.59-6.49c4.46,1.88,8.92,3.76,13.38,5.65
			c-4.96-2.2-9.59-4.84-13.93-8.1c3.78,2.92,7.56,5.84,11.33,8.76c-3.48-2.75-6.6-5.8-9.41-9.24c2.92,3.78,5.84,7.56,8.76,11.33
			c-3-3.9-5.42-8.04-7.35-12.56c1.88,4.46,3.76,8.92,5.65,13.38c-1.97-4.97-3.25-10.05-3.97-15.34c0.67,4.96,1.33,9.92,2,14.89
			c-0.73-6.42-0.6-12.79,0.18-19.19c-0.67,4.96-1.33,9.92-2,14.89c1.21-8.59,3.56-16.88,6.84-24.9c-1.88,4.46-3.76,8.92-5.65,13.38
			c4.67-10.95,11.11-20.82,18.37-30.22c-2.92,3.78-5.84,7.56-8.76,11.33c8.3-10.58,17.46-20.42,26.49-30.37
			c11.76-12.95,22.43-26.55,32.98-40.52c-2.92,3.78-5.84,7.56-8.76,11.33c2.15-2.77,4.37-5.35,7.03-7.64
			c-3.78,2.92-7.56,5.84-11.33,8.76c1.55-1.18,3.1-2.15,4.86-2.97c-4.46,1.88-8.92,3.76-13.38,5.65c1.42-0.52,2.69-0.86,4.18-1.11
			c-4.96,0.67-9.92,1.33-14.89,2c1.48-0.1,2.77-0.07,4.24,0.1c-4.96-0.67-9.92-1.33-14.89-2c1.44,0.3,2.71,0.67,4.09,1.19
			c-4.46-1.88-8.92-3.76-13.38-5.65c1.8,0.84,3.39,1.81,4.99,2.99c-3.78-2.92-7.56-5.84-11.33-8.76c1.54,1.3,2.88,2.66,4.16,4.21
			c-2.92-3.78-5.84-7.56-8.76-11.33c1.24,1.69,2.24,3.4,3.15,5.28c-1.88-4.46-3.76-8.92-5.65-13.38c1.61,3.81,2.56,7.64,3.2,11.72
			c-0.67-4.96-1.33-9.92-2-14.89c1,7.75,1.71,16.05,0.68,23.83c0.67-4.96,1.33-9.92,2-14.89c-0.31,1.63-0.7,3.1-1.24,4.67
			c1.88-4.46,3.76-8.92,5.65-13.38c-0.67,1.51-1.37,2.79-2.31,4.15c2.92-3.78,5.84-7.56,8.76-11.33c-1.31,1.6-2.72,2.94-4.33,4.24
			c3.78-2.92,7.56-5.84,11.33-8.76c-8.43,6.09-18.35,10.48-27.51,15.38c-9.82,5.26-19.67,10.47-29.58,15.57
			c-19.79,10.18-39.83,19.86-60.32,28.54c4.46-1.88,8.92-3.76,13.38-5.65c-18.77,7.89-37.89,14.88-57.45,20.54
			c18.16,31.2,36.32,62.4,54.48,93.6c2.85-2.66,5.8-5.17,8.87-7.56c-3.78,2.92-7.56,5.84-11.33,8.76
			c8.01-6.05,16.65-11.03,25.9-14.94c-4.46,1.88-8.92,3.76-13.38,5.65c4.64-1.88,9.36-3.48,14.19-4.8
			c12.98-3.55,27.08-13.65,33.47-25.74c1.88-4.46,3.76-8.92,5.65-13.38c2.33-7.44,2.67-14.89,1-22.33
			c-1.58-11.75-6.41-23.9-15.4-32.15c-11.08-10.17-24.33-16.1-39.6-16.4c-12.4-0.25-24.89,1.48-37.07,3.62
			c-7.95,1.4-15.66,3.69-23.14,6.71c-7.29,1.73-13.64,5.07-19.04,10.02c-6.1,3.95-10.9,9.19-14.42,15.71
			c-7.02,12-10,29.69-5.65,43.15c4.39,13.55,12.78,26.62,25.74,33.47c13.3,7.03,28.37,9.8,43.15,5.65
			c14.93-4.19,29.86-8.39,44.79-12.58c13.61-3.82,26.32-13.52,33.47-25.74c7.02-12,10-29.69,5.65-43.15
			c-4.39-13.55-12.78-26.62-25.74-33.47c-13.3-7.03-28.37-9.8-43.15-5.65c-14.93,4.19-29.86,8.39-44.79,12.58
			c9.92,36,19.85,72,29.77,108c8.66-3.49,17.57-5.91,26.81-7.29c-4.96,0.67-9.92,1.33-14.89,2c6.16-0.82,12.31-1.16,18.52-1.04
			c-4.96-36.67-9.92-73.33-14.89-110c-27.74,7.58-52.71,22.15-73.68,41.7c-2.92,3.78-5.84,7.56-8.76,11.33
			c-4.09,6.43-6.31,13.37-6.65,20.82c-1.6,11.94-0.08,25.28,6.65,35.71c5.22,8.1,11.99,14.87,20.09,20.09
			c11.75,7.57,29.9,9.48,43.15,5.65c47.6-13.77,93.05-34.91,136.92-57.71c10.16-5.28,20.26-10.67,30.35-16.09
			c12.54-6.74,25.77-13.1,35.66-23.69c16.17-17.31,22.29-39.61,21.12-62.88c-0.95-18.81-3.48-39.21-14.45-55.2
			c-7.7-11.21-17.24-21.8-29.68-27.89c-16.78-8.2-34.52-11.31-52.91-6.7c-12.97,3.26-25.03,10.9-34.49,20.2
			c-7.03,6.91-12.4,15.5-18.36,23.34c2.92-3.78,5.84-7.56,8.76-11.33c-19.06,24.64-41.75,45.9-59.84,71.42
			c-9.46,13.35-16.41,28.4-21.6,43.91c-4.99,14.93-7.67,31.73-6.74,47.46c0.57,9.63,1.68,19.84,4.45,29.16
			c2.82,9.48,6.81,19.46,12.31,27.77c10.86,16.42,25.41,31.15,43.34,39.79c8.68,4.18,17.94,8.24,27.34,10.77
			c10.09,2.71,20.91,3.91,31.2,4.94c15.86,1.59,31.61-0.58,47.28-3.01c11.18-1.74,22.02-4.92,32.47-9.23
			c14.64-6.04,28.51-12.17,41.27-21.6c14.98-11.08,27.18-22.04,38.51-36.71c11.29-14.62,18.81-28.77,25.41-46.25
			c5.32-14.07,7.38-29.59,8.53-44.46c1.16-15-0.88-30.47-3.78-45.12c-5.62-28.4-21.23-56.94-42.27-76.85
			c-31.43-29.75-77.15-45.32-119.82-33.75c-27.97,7.59-56.26,28.6-62.28,58.46c-3.23,16.06-2.32,32.57,6.25,47.01
			c6.1,10.29,13.85,18.51,24.26,24.56c13.5,7.85,27.12,8.64,42.27,10.28c-4.96-0.67-9.92-1.33-14.89-2
			c4.63,0.63,9.05,1.83,13.38,3.58c-4.46-1.88-8.92-3.76-13.38-5.65c4.7,2.04,9.01,4.63,13.08,7.75c-3.78-2.92-7.56-5.84-11.33-8.76
			c4.03,3.25,7.61,6.88,10.84,10.93c-2.92-3.78-5.84-7.56-8.76-11.33c3.45,4.53,6.32,9.37,8.64,14.57
			c-1.88-4.46-3.76-8.92-5.65-13.38c2.21,5.25,3.76,10.64,4.63,16.28c-0.67-4.96-1.33-9.92-2-14.89c0.77,5.87,0.73,11.71,0.04,17.59
			c0.67-4.96,1.33-9.92,2-14.89c-0.97,6.96-2.84,13.62-5.54,20.11c1.88-4.46,3.76-8.92,5.65-13.38c-3.05,6.96-6.9,13.4-11.53,19.42
			c2.92-3.78,5.84-7.56,8.76-11.33c-4.75,5.98-10.09,11.32-16.06,16.08c3.78-2.92,7.56-5.84,11.33-8.76
			c-7.36,5.66-15.39,10.19-23.93,13.82c4.46-1.88,8.92-3.76,13.38-5.65c-10.45,4.26-21.31,7.03-32.47,8.63
			c4.96-0.67,9.92-1.33,14.89-2c-15.49,2.04-31.09,1.79-46.57-0.24c4.96,0.67,9.92,1.33,14.89,2c-14.42-2.04-28.46-5.71-41.93-11.28
			c4.46,1.88,8.92,3.76,13.38,5.65c-1.67-0.71-3.32-1.45-4.98-2.2c-4.46,34.12-8.92,68.24-13.38,102.35
			c27.47-9.87,53.85-22.53,77.21-40.13c13.1-9.87,25.92-19.96,37.42-31.68c9.05-9.23,16.91-19.67,27-27.83
			c-3.78,2.92-7.56,5.84-11.33,8.76c4.31-3.31,8.87-6.01,13.86-8.17c-4.46,1.88-8.92,3.76-13.38,5.65
			c5.84-2.35,11.84-3.84,18.07-4.68c-4.96,0.67-9.92,1.33-14.89,2c10.21-1.19,20.43-0.67,30.6,0.65c-4.96-0.67-9.92-1.33-14.89-2
			c14.07,1.96,29.17,4.36,42.44,9.56c-4.46-1.88-8.92-3.76-13.38-5.65c2.83,1.22,5.42,2.64,7.89,4.49
			c-3.78-2.92-7.56-5.84-11.33-8.76c1.57,1.33,2.93,2.73,4.21,4.34c-2.92-3.78-5.84-7.56-8.76-11.33c1.14,1.66,2.07,3.33,2.89,5.16
			c-1.88-4.46-3.76-8.92-5.65-13.38c0.89,2.36,1.51,4.71,1.94,7.19c-0.67-4.96-1.33-9.92-2-14.89c1.21,8.99-0.04,18.03-1.22,26.96
			c0.67-4.96,1.33-9.92,2-14.89c-2.22,16.25-5.46,32.45-11.71,47.68c1.88-4.46,3.76-8.92,5.65-13.38
			c-2.98,7.02-6.59,13.68-11.16,19.8c2.92-3.78,5.84-7.56,8.76-11.33c-3.49,4.51-7.4,8.54-11.88,12.06
			c3.78-2.92,7.56-5.84,11.33-8.76c-4.19,3.15-8.63,5.69-13.45,7.75c4.46-1.88,8.92-3.76,13.38-5.65
			c-7.76,3.06-15.83,4.65-24.08,5.76c4.96-0.67,9.92-1.33,14.89-2c-62.57,7.9-126.58,6.78-189.03-1.5c4.96,0.67,9.92,1.33,14.89,2
			c-12.67-1.71-25.71-3.12-37.66-7.95c4.46,1.88,8.92,3.76,13.38,5.65c-3.49-1.52-6.74-3.3-9.8-5.56c3.78,2.92,7.56,5.84,11.33,8.76
			c-2.22-1.78-4.17-3.7-5.96-5.91c2.92,3.78,5.84,7.56,8.76,11.33c-1.38-1.88-2.53-3.8-3.53-5.9c1.88,4.46,3.76,8.92,5.65,13.38
			c-1.05-2.51-1.77-5.03-2.24-7.72c0.67,4.96,1.33,9.92,2,14.89c-0.48-3.64-0.44-7.19,0.04-10.83c-0.67,4.96-1.33,9.92-2,14.89
			c0.63-3.7,1.66-7.21,3.11-10.67c-1.88,4.46-3.76,8.92-5.65,13.38c1.57-3.44,3.45-6.62,5.73-9.64c-2.92,3.78-5.84,7.56-8.76,11.33
			c2.48-3.08,5.26-5.72,8.36-8.16c-3.78,2.92-7.56,5.84-11.33,8.76c4.25-3.14,8.78-5.66,13.64-7.74c-4.46,1.88-8.92,3.76-13.38,5.65
			c7.96-3.21,16.24-5.09,24.73-6.24c-4.96,0.67-9.92,1.33-14.89,2c12.4-1.52,24.72-1.83,37.08-4.11
			c16.63-3.07,30.04-11.94,42.8-22.42c11.97-9.83,22.13-21.53,34.45-31.05c-3.78,2.92-7.56,5.84-11.33,8.76
			c15.23-11.6,31.77-21.22,49.39-28.73c-4.46,1.88-8.92,3.76-13.38,5.65c6.23-2.6,12.54-4.93,18.96-6.99
			c13.78-4.43,26.05-13.06,33.47-25.74c7.02-12,10-29.69,5.65-43.15c-4.39-13.55-12.78-26.62-25.74-33.47
			C1736.92,869.94,1721.21,866.53,1706.78,871.17L1706.78,871.17z"/>
	</g>
</g>
</svg>
